solid STL generated by MeshLab
  facet normal -1.203859e-001 -2.407717e-001 9.630868e-001
    outer loop
      vertex  0.000000e+000 1.000000e+000 0.000000e+000
      vertex  2.000000e+000 0.000000e+000 0.000000e+000
      vertex  2.000000e+000 2.000000e+000 5.000000e-001
    endloop
  endfacet
  facet normal -2.425356e-001 0.000000e+000 9.701425e-001
    outer loop
      vertex  0.000000e+000 1.000000e+000 0.000000e+000
      vertex  2.000000e+000 2.000000e+000 5.000000e-001
      vertex  0.000000e+000 3.000000e+000 0.000000e+000
    endloop
  endfacet
  facet normal -1.622214e-001 1.622214e-001 9.733285e-001
    outer loop
      vertex  0.000000e+000 3.000000e+000 0.000000e+000
      vertex  2.000000e+000 2.000000e+000 5.000000e-001
      vertex  2.000000e+000 5.000000e+000 0.000000e+000
    endloop
  endfacet
  facet normal -1.303963e-001 1.629953e-001 9.779720e-001
    outer loop
      vertex  2.000000e+000 2.000000e+000 5.000000e-001
      vertex  3.000000e+000 4.000000e+000 3.000000e-001
      vertex  2.000000e+000 5.000000e+000 0.000000e+000
    endloop
  endfacet
  facet normal 1.355262e-001 4.065786e-001 9.035079e-001
    outer loop
      vertex  2.000000e+000 5.000000e+000 0.000000e+000
      vertex  3.000000e+000 4.000000e+000 3.000000e-001
      vertex  4.000000e+000 5.000000e+000 -3.000000e-001
    endloop
  endfacet
  facet normal -4.188538e-002 5.445101e-001 8.377079e-001
    outer loop
      vertex  3.000000e+000 4.000000e+000 3.000000e-001
      vertex  4.000000e+000 3.000000e+000 1.000000e+000
      vertex  4.000000e+000 5.000000e+000 -3.000000e-001
    endloop
  endfacet
  facet normal -3.577709e-001 2.683282e-001 8.944272e-001
    outer loop
      vertex  2.000000e+000 2.000000e+000 5.000000e-001
      vertex  4.000000e+000 3.000000e+000 1.000000e+000
      vertex  3.000000e+000 4.000000e+000 3.000000e-001
    endloop
  endfacet
  facet normal 2.815813e-001 5.229367e-001 8.045180e-001
    outer loop
      vertex  4.000000e+000 5.000000e+000 -3.000000e-001
      vertex  4.000000e+000 3.000000e+000 1.000000e+000
      vertex  5.000000e+000 4.000000e+000 0.000000e+000
    endloop
  endfacet
  facet normal 6.434595e-001 1.135517e-001 7.570112e-001
    outer loop
      vertex  4.000000e+000 3.000000e+000 1.000000e+000
      vertex  5.000000e+000 2.000000e+000 3.000000e-001
      vertex  5.000000e+000 4.000000e+000 0.000000e+000
    endloop
  endfacet
  facet normal 1.467348e-001 1.467348e-001 9.782320e-001
    outer loop
      vertex  5.000000e+000 4.000000e+000 0.000000e+000
      vertex  5.000000e+000 2.000000e+000 3.000000e-001
      vertex  6.000000e+000 3.000000e+000 0.000000e+000
    endloop
  endfacet
  facet normal 1.203859e-001 -2.407717e-001 9.630868e-001
    outer loop
      vertex  2.000000e+000 0.000000e+000 0.000000e+000
      vertex  4.000000e+000 1.000000e+000 0.000000e+000
      vertex  2.000000e+000 2.000000e+000 5.000000e-001
    endloop
  endfacet
  facet normal 0.000000e+000 -4.472136e-001 8.944272e-001
    outer loop
      vertex  2.000000e+000 2.000000e+000 5.000000e-001
      vertex  4.000000e+000 1.000000e+000 0.000000e+000
      vertex  4.000000e+000 3.000000e+000 1.000000e+000
    endloop
  endfacet
  facet normal 1.760902e-001 -4.402255e-001 8.804509e-001
    outer loop
      vertex  4.000000e+000 3.000000e+000 1.000000e+000
      vertex  4.000000e+000 1.000000e+000 0.000000e+000
      vertex  5.000000e+000 2.000000e+000 3.000000e-001
    endloop
  endfacet
  facet normal -9.759001e-002 -1.951800e-001 9.759001e-001
    outer loop
      vertex  4.000000e+000 1.000000e+000 0.000000e+000
      vertex  6.000000e+000 0.000000e+000 0.000000e+000
      vertex  5.000000e+000 2.000000e+000 3.000000e-001
    endloop
  endfacet
  facet normal 2.873479e-001 0.000000e+000 9.578263e-001
    outer loop
      vertex  6.000000e+000 3.000000e+000 0.000000e+000
      vertex  5.000000e+000 2.000000e+000 3.000000e-001
      vertex  6.000000e+000 0.000000e+000 0.000000e+000
    endloop
  endfacet
endsolid vcg
